<?xml version="1.0" encoding="UTF-8"?>
<!DOCTYPE svg PUBLIC "-//W3C//DTD SVG 1.1//EN" "http://www.w3.org/Graphics/SVG/1.1/DTD/svg11.dtd">
<!-- Creator: CorelDRAW X6 -->
<svg xmlns="http://www.w3.org/2000/svg" xml:space="preserve" width="1312px" height="354px" version="1.1" style="shape-rendering:geometricPrecision; text-rendering:geometricPrecision; image-rendering:optimizeQuality; fill-rule:evenodd; clip-rule:evenodd"
viewBox="0 0 12268 3312"
 xmlns:xlink="http://www.w3.org/1999/xlink">
 <defs>
  <style type="text/css">
   <![CDATA[
    .str0 {stroke:#D81C19;stroke-width:224.397}
    .fil2 {fill:none}
    .fil0 {fill:#2B2A29}
    .fil1 {fill:#D81C19}
    .fil3 {fill:#D81C19;fill-rule:nonzero}
   ]]>
  </style>
 </defs>
 <g id="Слой_x0020_1">
  <metadata id="CorelCorpID_0Corel-Layer"/>
  <path class="fil0" d="M872 2811l0 0c0,-65 -9,-117 -29,-157 -20,-40 -51,-69 -94,-87 -43,-18 -99,-27 -168,-27l-564 0 0 771 198 0 0 -228 369 0c68,0 123,-9 165,-27 42,-19 74,-48 93,-88 20,-40 30,-93 30,-158zm-198 0l0 0c0,28 -3,50 -11,68 -8,18 -21,31 -40,39 -19,9 -45,13 -78,13l-331 0 0 -237 331 0c26,0 47,3 64,8 17,5 30,13 39,22 9,10 16,22 20,37 4,15 6,31 6,50l0 0zm1190 501l0 0 0 -146 -648 0 0 -177 628 0 0 -134 -628 0 0 -169 648 0 0 -146 -846 0 0 771 846 0zm1109 0l0 0 0 -160c0,-27 -6,-50 -17,-67 -11,-17 -26,-32 -47,-43 -20,-11 -44,-21 -72,-29 15,-8 30,-18 45,-29 14,-11 27,-24 39,-40 11,-16 20,-34 27,-56 7,-22 10,-47 10,-77 0,-54 -8,-99 -22,-135 -14,-36 -35,-63 -61,-83 -26,-20 -57,-34 -93,-42 -36,-8 -75,-12 -119,-11l-629 0 0 771 198 0 0 -229 384 0c38,0 69,4 92,11 23,8 40,19 50,36 10,16 16,37 15,62l0 120 198 0zm-212 -500l0 0c0,28 -3,50 -11,68 -7,17 -19,30 -36,38 -16,8 -39,12 -67,12l-414 0 0 -236 414 0c29,0 52,4 69,12 17,9 28,21 35,39 7,17 10,40 10,67l0 0zm1215 -118l0 0 0 -153 -846 0 0 771 198 0 0 -322 629 0 0 -153 -629 0 0 -142 648 0zm1121 355l0 0 0 -242c0,-54 -6,-99 -18,-134 -12,-36 -30,-64 -55,-84 -25,-21 -56,-35 -93,-43 -38,-9 -82,-13 -133,-12l-364 0c-56,0 -104,4 -143,13 -39,9 -71,24 -94,45 -24,21 -41,49 -52,84 -11,36 -16,79 -16,132l0 242c0,47 5,87 17,120 11,34 29,61 53,82 24,21 56,37 94,47 38,10 85,15 139,15l3 0 364 0 5 0c55,0 102,-5 139,-14 39,-10 69,-25 92,-46 23,-21 39,-48 49,-81 10,-33 14,-74 14,-122l0 0zm-198 -20l0 0c0,26 -2,47 -6,64 -5,17 -12,30 -24,40 -11,9 -27,16 -47,20 -20,4 -46,6 -78,6l-262 0c-40,0 -71,-3 -94,-11 -23,-8 -39,-21 -48,-40 -9,-19 -14,-45 -14,-78l0 -206c0,-27 2,-50 7,-68 5,-18 14,-32 25,-43 12,-10 28,-18 49,-22 20,-4 46,-6 77,-6l255 0c29,0 54,2 75,6 20,4 37,11 49,21 12,10 21,24 27,42 6,18 8,41 8,69l0 206zm1297 283l0 0 0 -160c0,-27 -6,-50 -17,-67 -11,-17 -26,-32 -47,-43 -20,-11 -44,-21 -72,-29 15,-8 30,-18 45,-29 14,-11 27,-24 39,-40 11,-16 20,-34 27,-56 7,-22 10,-47 10,-77 0,-54 -8,-99 -22,-135 -14,-36 -35,-63 -61,-83 -26,-20 -57,-34 -93,-42 -36,-8 -75,-12 -118,-11l-629 0 0 771 198 0 0 -229 384 0c38,0 69,4 92,11 23,8 40,19 51,36 10,16 15,37 15,62l0 120 198 0zm-212 -500l0 0c0,28 -3,50 -11,68 -7,17 -19,30 -36,38 -16,8 -39,12 -67,12l-414 0 0 -236 414 0c29,0 52,4 69,12 17,9 28,21 35,39 7,17 10,40 10,67l0 0zm1681 500l0 0 0 -771 -369 0 -274 618 -12 0 -274 -618 -369 0 0 771 198 0 0 -618 26 0 284 618 282 0 284 -618 26 0 0 618 198 0zm1280 0l0 0 -435 -771 -293 0 -439 771 231 0 107 -194 490 0 106 194 233 0zm-419 -340l0 0 -330 0 163 -287 10 0 158 287zm1589 340l0 0 0 -771 -198 0 0 618 -27 0 -505 -618 -333 0 0 771 198 0 0 -618 28 0 498 618 340 0zm1138 -267l0 0 -199 0c0,23 -3,42 -8,57 -6,15 -15,27 -27,35 -12,8 -29,14 -49,17 -20,3 -45,5 -75,5l-254 0c-28,0 -52,-1 -73,-5 -20,-4 -37,-10 -50,-20 -13,-10 -22,-24 -29,-43 -6,-18 -9,-42 -9,-72l0 -191c0,-30 2,-54 6,-73 4,-19 12,-33 24,-43 12,-10 28,-17 49,-21 21,-4 48,-5 81,-5l254 0c38,0 69,4 92,12 23,8 40,21 51,38 11,17 16,39 16,66l198 0c0,-54 -8,-98 -22,-134 -15,-35 -36,-62 -64,-82 -28,-20 -61,-34 -100,-42 -39,-8 -83,-12 -132,-11l-329 0c-61,0 -112,4 -153,13 -41,9 -74,25 -99,46 -25,22 -42,51 -53,89 -11,37 -16,84 -16,140l0 219c0,51 5,95 15,130 10,35 27,63 50,84 23,21 54,36 93,45 37,9 82,13 136,14l8 0 369 0 9 0c45,0 84,-3 116,-8 34,-6 63,-15 86,-27 23,-12 40,-29 53,-49 13,-21 22,-46 27,-76 5,-30 8,-66 8,-107l0 0zm1016 267l0 -146 -648 0 0 -177 628 0 0 -134 -628 0 0 -169 648 0 0 -146 -846 0 0 771 846 0z"/>
  <path class="fil1" d="M575 0c423,0 3319,0 3319,0l-482 468 -1891 0c-263,0 -263,367 0,367l2006 0 0 370c0,0 -1829,1 -2952,1 -289,0 -575,-238 -575,-527l0 -153c0,-289 285,-525 575,-525z"/>
  <path class="fil1" d="M3577 2025c-423,0 -3571,-2 -3571,-2l370 -464 2288 -1c263,0 263,-355 0,-354l-2039 2 0 -384c0,0 1829,8 2952,8 289,0 575,229 575,518l0 153c0,289 -285,525 -575,525z"/>
  <rect class="fil1" x="5463" y="377" width="1284" height="1645"/>
  <polygon class="fil1" points="4076,472 7671,472 8139,0 4520,0 "/>
  <polygon class="fil1" points="9590,365 10875,365 10875,2022 9590,2022 "/>
  <polygon class="fil1" points="8203,472 11799,472 12267,0 8648,0 "/>
  <circle class="fil2 str0" cx="8216" cy="1402" r="511"/>
  <path class="fil3" d="M7826 1628l291 -502 97 -165 104 165 289 502 -181 0 -70 -133 -282 0 -69 133 -178 0zm289 -217l196 0 -98 -190 -98 190z"/>
 </g>
</svg>
